<svg id="visual" viewBox="0 0 900 600" width="900" height="600" xmlns="http://www.w3.org/2000/svg" xmlns:xlink="http://www.w3.org/1999/xlink" version="1.1"><rect x="0" y="0" width="900" height="600" fill="#073661"></rect><path d="M0 467L13.7 472C27.3 477 54.7 487 82 487.7C109.3 488.3 136.7 479.7 163.8 482.7C191 485.7 218 500.3 245.2 509.2C272.3 518 299.7 521 327 511C354.3 501 381.7 478 409 464C436.3 450 463.7 445 491 453.5C518.3 462 545.7 484 573 483.7C600.3 483.3 627.7 460.7 654.8 457.2C682 453.7 709 469.3 736.2 468.8C763.3 468.3 790.7 451.7 818 449.2C845.3 446.7 872.7 458.3 886.3 464.2L900 470L900 601L886.3 601C872.7 601 845.3 601 818 601C790.7 601 763.3 601 736.2 601C709 601 682 601 654.8 601C627.7 601 600.3 601 573 601C545.7 601 518.3 601 491 601C463.7 601 436.3 601 409 601C381.7 601 354.3 601 327 601C299.7 601 272.3 601 245.2 601C218 601 191 601 163.8 601C136.7 601 109.3 601 82 601C54.7 601 27.3 601 13.7 601L0 601Z" fill="#30ce99" stroke-linecap="round" stroke-linejoin="miter"></path></svg>